HIERARCHY
ROOT Hips
{
	OFFSET 0.000000 0.000000 0.000000
	CHANNELS 6 Xposition Yposition Zposition Xrotation Yrotation Zrotation
	JOINT LeftUpLeg_virtual
	{
		OFFSET 0.000000 0.000000 0.000000
		CHANNELS 3 Xrotation Yrotation Zrotation
		JOINT LeftUpLeg
		{
			OFFSET 13.026900 -6.336304 -1.092800
			CHANNELS 3 Xrotation Yrotation Zrotation
			JOINT LeftLeg
			{
				OFFSET 0.524474 -46.096886 9.782700
				CHANNELS 3 Xrotation Yrotation Zrotation
				JOINT LeftFoot
				{
					OFFSET -0.524474 -53.427422 -12.948200
					CHANNELS 3 Xrotation Yrotation Zrotation
					JOINT LeftToeBase
					{
						OFFSET 0.192200 -14.009700 16.364100
						CHANNELS 3 Xrotation Yrotation Zrotation
						JOINT LeftToe_End
						{
							OFFSET -1.784700 -0.561700 9.474800
							CHANNELS 3 Xrotation Yrotation Zrotation
							End Site
							{
								OFFSET 0 0 0
							}
						}
					}
				}
			}
		}
	}
	JOINT RightUpLeg_virtual
	{
		OFFSET 0.000000 0.000000 0.000000
		CHANNELS 3 Xrotation Yrotation Zrotation
		JOINT RightUpLeg
		{
			OFFSET -12.883000 -6.336304 -1.092800
			CHANNELS 3 Xrotation Yrotation Zrotation
			JOINT RightLeg
			{
				OFFSET -0.524587 -46.096825 9.782800
				CHANNELS 3 Xrotation Yrotation Zrotation
				JOINT RightFoot
				{
					OFFSET 0.524587 -53.427383 -12.948300
					CHANNELS 3 Xrotation Yrotation Zrotation
					JOINT RightToeBase
					{
						OFFSET -0.192200 -14.009700 16.364100
						CHANNELS 3 Xrotation Yrotation Zrotation
						JOINT RightToe_End
						{
							OFFSET 1.784700 -0.561700 9.474800
							CHANNELS 3 Xrotation Yrotation Zrotation
							End Site
							{
								OFFSET 0 0 0
							}
						}
					}
				}
			}
		}
	}
	JOINT Spine_virtual
	{
		OFFSET 0.000000 0.000000 0.000000
		CHANNELS 3 Xrotation Yrotation Zrotation
		JOINT Spine
		{
			OFFSET 0.072000 7.257294 -0.789700
			CHANNELS 3 Xrotation Yrotation Zrotation
			JOINT Spine1
			{
				OFFSET 0.000000 12.508769 -0.658067
				CHANNELS 3 Xrotation Yrotation Zrotation
				JOINT Spine1_split
				{
					OFFSET 0.000000 12.508769 -0.658067
					CHANNELS 3 Xrotation Yrotation Zrotation
					JOINT Spine2
					{
						OFFSET 0.000000 12.508769 -0.658067
						CHANNELS 3 Xrotation Yrotation Zrotation
						JOINT Neck_virtual
						{
							OFFSET 0.000000 0.000000 0.000000
							CHANNELS 3 Xrotation Yrotation Zrotation
							JOINT Neck
							{
								OFFSET 0.000000 14.033295 7.520400
								CHANNELS 3 Xrotation Yrotation Zrotation
								JOINT Head
								{
									OFFSET 0.000000 8.198502 5.703100
									CHANNELS 3 Xrotation Yrotation Zrotation
									JOINT HeadTop_End
									{
										OFFSET 0.000000 17.760803 13.332701
										CHANNELS 3 Xrotation Yrotation Zrotation
										End Site
										{
											OFFSET 0 0 0
										}
									}
								}
							}
						}
						JOINT LeftShoulder_virtual
						{
							OFFSET 0.000000 0.000000 0.000000
							CHANNELS 3 Xrotation Yrotation Zrotation
							JOINT LeftShoulder
							{
								OFFSET 6.292450 5.785301 -0.669000
								CHANNELS 3 Xrotation Yrotation Zrotation
								JOINT LeftShoulder_split
								{
									OFFSET 6.292450 5.785301 -0.669000
									CHANNELS 3 Xrotation Yrotation Zrotation
									JOINT LeftArm
									{
										OFFSET 13.907140 -6.093903 1.965100
										CHANNELS 3 Xrotation Yrotation Zrotation
										JOINT LeftForeArm
										{
											OFFSET 34.140198 0.000000 0.000000
											CHANNELS 3 Xrotation Yrotation Zrotation
											JOINT LeftHand
											{
												OFFSET 40.960209 0.000000 0.000000
												CHANNELS 3 Xrotation Yrotation Zrotation
												End Site
												{
													OFFSET 0 0 0
												}
											}
										}
									}
								}
							}
						}
						JOINT RightShoulder_virtual
						{
							OFFSET 0.000000 0.000000 0.000000
							CHANNELS 3 Xrotation Yrotation Zrotation
							JOINT RightShoulder
							{
								OFFSET -6.292450 5.785301 -0.669000
								CHANNELS 3 Xrotation Yrotation Zrotation
								JOINT RightShoulder_split
								{
									OFFSET -6.292450 5.785301 -0.669000
									CHANNELS 3 Xrotation Yrotation Zrotation
									JOINT RightArm
									{
										OFFSET -13.907140 -6.093903 1.965100
										CHANNELS 3 Xrotation Yrotation Zrotation
										JOINT RightForeArm
										{
											OFFSET -34.140198 0.000000 0.000000
											CHANNELS 3 Xrotation Yrotation Zrotation
											JOINT RightHand
											{
												OFFSET -40.960209 0.000000 0.000000
												CHANNELS 3 Xrotation Yrotation Zrotation
												End Site
												{
													OFFSET 0 0 0
												}
											}
										}
									}
								}
							}
						}
					}
				}
			}
		}
	}
}
MOTION
Frames: 11
Frame Time: 0.03333333
7.841246 118.220047 -14.294300 0.000000 0.000000 0.000000 4.423300 15.769664 -5.292291 -21.611376 13.321866 16.456567 20.014211 10.767635 2.357753 -1.445360 4.116100 -20.634599 -0.327830 -4.198047 3.230674 0.000000 0.000000 0.000000 4.864644 14.641207 -5.440756 -3.532503 -1.066573 8.509155 1.053354 -4.036622 1.185980 -5.353840 -4.222719 -3.804852 -0.342297 -0.065011 -5.182115 0.000000 0.000000 0.000000 4.934460 15.817612 -5.519766 -0.627162 -1.807883 3.677619 -0.272648 0.866593 4.723741 0.095574 -0.160320 -0.054014 0.000000 0.000000 0.000000 0.262704 3.994629 4.438983 0.383917 6.015571 0.329138 -14.648483 -42.230670 -25.132880 0.000000 0.000000 0.000000 -0.379124 2.157873 4.098290 2.197346 -7.361550 -8.716509 2.369800 -1.247783 -3.176760 5.075224 3.201199 -80.696417 3.548451 -12.822474 0.168202 0.000000 0.000000 0.000000 0.867401 2.627955 4.626131 1.477801 0.816888 12.491339 -8.230020 -0.546097 1.242975 -0.395161 5.169569 63.647418 -12.685394 8.585249 2.344495 0.000000 0.000000 0.000000 
7.617550 118.150940 -14.238071 0.000000 0.000000 0.000000 4.486716 15.988611 -5.348713 -21.762663 13.232078 16.473989 20.088310 10.822283 2.446464 -1.431903 4.175903 -20.738428 -0.303526 -4.203126 3.176718 0.000000 0.000000 0.000000 4.949886 14.693588 -5.490924 -3.468579 -0.953364 8.665383 0.891883 -4.076124 1.124557 -5.337969 -4.273144 -3.813989 -0.520069 -0.063156 -5.176869 0.000000 0.000000 0.000000 5.106558 16.015165 -5.596727 -0.685491 -1.808290 3.663685 -0.208987 0.911993 4.684882 0.108926 -0.174280 -0.049791 0.000000 0.000000 0.000000 0.321562 4.022049 4.417960 0.244825 5.971476 0.536161 -14.695992 -42.040538 -25.087954 0.000000 0.000000 0.000000 -0.320103 2.183154 4.113710 2.180711 -7.397401 -8.788001 2.171745 -1.497517 -2.992705 4.856309 3.181061 -80.476922 3.427744 -12.816326 0.068734 0.000000 0.000000 0.000000 0.851771 2.632484 4.614802 1.482273 1.029698 12.483837 -7.782558 -0.162785 1.142732 -0.414268 5.362237 63.745773 -12.742195 8.891943 2.379382 0.000000 0.000000 0.000000 
7.347460 118.018166 -14.203793 0.000000 0.000000 0.000000 4.594244 16.179799 -5.520398 -22.067127 13.100651 16.621062 20.289707 10.781570 2.507483 -1.450114 4.255742 -20.734556 -0.225566 -4.218447 3.149445 0.000000 0.000000 0.000000 5.054968 14.790508 -5.645856 -3.421059 -0.868581 8.941904 0.749675 -4.126316 1.062532 -5.306373 -4.359855 -3.737332 -0.768862 -0.087386 -5.103213 0.000000 0.000000 0.000000 5.222201 16.127967 -5.752595 -0.745907 -1.765789 3.681533 -0.072926 0.960963 4.660114 0.128505 -0.189231 -0.045954 0.000000 0.000000 0.000000 0.447669 4.060510 4.397474 0.055014 5.901263 0.746229 -14.724230 -41.764172 -25.049949 0.000000 0.000000 0.000000 -0.184097 2.201606 4.130066 2.138938 -7.465054 -8.905365 2.019568 -1.719110 -2.930333 4.470132 3.128130 -80.036758 3.325032 -12.841317 0.038746 0.000000 0.000000 0.000000 0.911526 2.641543 4.615652 1.420035 1.233946 12.611158 -7.424008 0.013537 1.014164 -0.269562 6.077489 63.861545 -12.648675 9.029048 2.267941 0.000000 0.000000 0.000000 
7.071691 117.846283 -14.188610 0.000000 0.000000 0.000000 4.712396 16.314959 -5.773287 -22.487073 12.921703 16.850111 20.615405 10.650134 2.539744 -1.473464 4.356503 -20.627752 -0.156191 -4.250009 3.152124 0.000000 0.000000 0.000000 5.167894 14.920418 -5.883566 -3.436318 -0.804385 9.299582 0.668432 -4.186624 1.008883 -5.279343 -4.482372 -3.597260 -1.009510 -0.133715 -4.968149 0.000000 0.000000 0.000000 5.270519 16.153795 -5.959207 -0.812757 -1.685639 3.716595 0.127697 1.005962 4.648671 0.141919 -0.199513 -0.044933 0.000000 0.000000 0.000000 0.633884 4.097197 4.377327 -0.188599 5.800994 0.970956 -14.717591 -41.395396 -25.023855 0.000000 0.000000 0.000000 0.023796 2.207347 4.146093 2.074150 -7.578616 -9.066490 1.863269 -1.941850 -2.959780 3.964963 3.020582 -79.462148 3.254647 -12.892301 0.077105 0.000000 0.000000 0.000000 1.042361 2.650411 4.631425 1.295138 1.409292 12.855005 -7.197003 -0.019795 0.894234 0.030265 7.147174 63.935686 -12.435824 9.001215 2.038864 0.000000 0.000000 0.000000 
6.808874 117.641342 -14.184750 0.000000 0.000000 0.000000 4.825737 16.361085 -6.065434 -22.974297 12.720243 17.122516 21.055692 10.436037 2.531453 -1.502725 4.470013 -20.420777 -0.184787 -4.299815 3.198076 0.000000 0.000000 0.000000 5.296385 15.060176 -6.163895 -3.527286 -0.733091 9.696837 0.673108 -4.265399 0.962733 -5.315943 -4.642267 -3.476588 -1.144826 -0.196693 -4.783982 0.000000 0.000000 0.000000 5.262310 16.106151 -6.185759 -0.888724 -1.580233 3.743801 0.384101 1.037839 4.646998 0.148484 -0.193356 -0.043772 0.000000 0.000000 0.000000 0.873694 4.120931 4.355333 -0.489804 5.675519 1.238188 -14.700165 -40.910354 -25.019871 0.000000 0.000000 0.000000 0.287948 2.194840 4.157797 1.988121 -7.747082 -9.265156 1.712643 -2.171663 -3.024258 3.373697 2.837705 -78.803109 3.235901 -12.991097 0.182375 0.000000 0.000000 0.000000 1.232028 2.653102 4.658978 1.126425 1.546725 13.181845 -7.099607 -0.190705 0.821355 0.445012 8.385260 63.916343 -12.147596 8.800200 1.737845 0.000000 0.000000 0.000000 
6.562922 117.418594 -14.155201 0.000000 0.000000 0.000000 4.945275 16.319936 -6.358269 -23.493400 12.536155 17.392126 21.597500 10.175642 2.476675 -1.562762 4.613381 -20.100250 -0.279838 -4.366586 3.281089 0.000000 0.000000 0.000000 5.441237 15.134844 -6.447167 -3.707717 -0.622465 10.100335 0.763821 -4.361922 0.922327 -5.431704 -4.846277 -3.432015 -1.164220 -0.266580 -4.571305 0.000000 0.000000 0.000000 5.215717 15.954888 -6.400230 -0.974494 -1.460114 3.742988 0.683100 1.048886 4.647311 0.157115 -0.173464 -0.042330 0.000000 0.000000 0.000000 1.157028 4.124056 4.328754 -0.844629 5.529754 1.563856 -14.705592 -40.285432 -25.049133 0.000000 0.000000 0.000000 0.585774 2.158550 4.159685 1.881579 -7.973038 -9.497457 1.582864 -2.379445 -3.097948 2.778279 2.630901 -78.102250 3.274006 -13.178757 0.340739 0.000000 0.000000 0.000000 1.467122 2.643527 4.693699 0.921407 1.643434 13.548747 -7.029761 -0.350425 0.746370 0.952521 9.641611 63.752357 -11.821895 8.428126 1.412904 0.000000 0.000000 0.000000 
6.333097 117.194870 -14.080608 0.000000 0.000000 0.000000 5.080514 16.169633 -6.629074 -23.981520 12.357768 17.621671 22.197778 9.892437 2.394487 -1.652130 4.803995 -19.665119 -0.373339 -4.448991 3.405908 0.000000 0.000000 0.000000 5.585859 15.091877 -6.704353 -4.008101 -0.452562 10.486020 0.929212 -4.451182 0.894546 -5.562387 -5.092028 -3.447211 -1.133461 -0.335296 -4.362594 0.000000 0.000000 0.000000 5.144522 15.714898 -6.589964 -1.064413 -1.340862 3.706667 1.008516 1.037406 4.641709 0.162549 -0.153293 -0.044801 0.000000 0.000000 0.000000 1.467603 4.103482 4.291468 -1.254881 5.373134 1.952332 -14.755551 -39.541369 -25.105402 0.000000 0.000000 0.000000 0.900929 2.099860 4.145501 1.759225 -8.264697 -9.737899 1.492525 -2.563735 -3.154606 2.214044 2.467860 -77.374999 3.377377 -13.449140 0.526252 0.000000 0.000000 0.000000 1.735282 2.619297 4.728193 0.694480 1.712874 13.939157 -6.982724 -0.416230 0.662482 1.569636 10.839681 63.440129 -11.487504 7.936512 1.103026 0.000000 0.000000 0.000000 
6.120030 116.984825 -13.961010 0.000000 0.000000 0.000000 5.237301 15.901635 -6.877918 -24.412337 12.163921 17.805043 22.809309 9.579808 2.298029 -1.726371 5.040771 -19.188865 -0.459590 -4.542659 3.593745 0.000000 0.000000 0.000000 5.734260 14.900867 -6.932788 -4.416136 -0.234044 10.837332 1.156159 -4.500664 0.878599 -5.602750 -5.364102 -3.482631 -1.123139 -0.395179 -4.185903 0.000000 0.000000 0.000000 5.080700 15.398390 -6.769664 -1.146820 -1.229293 3.650993 1.349310 1.006779 4.627869 0.155370 -0.139161 -0.047627 0.000000 0.000000 0.000000 1.791124 4.069215 4.237786 -1.718723 5.217005 2.393243 -14.849975 -38.736185 -25.183493 0.000000 0.000000 0.000000 1.220369 2.024478 4.110695 1.626014 -8.629876 -9.974184 1.429477 -2.725775 -3.199063 1.759970 2.423347 -76.625939 3.548980 -13.800680 0.717432 0.000000 0.000000 0.000000 2.025323 2.585977 4.753647 0.463197 1.771203 14.340986 -6.977369 -0.436374 0.656974 2.278582 12.026034 62.960322 -11.171039 7.420171 0.833452 0.000000 0.000000 0.000000 
5.920939 116.823898 -13.854481 0.000000 0.000000 0.000000 5.416849 15.541081 -7.119298 -24.786574 11.952146 17.949715 23.365787 9.275744 2.194846 -1.757200 5.342980 -18.729127 -0.538424 -4.644361 3.851252 0.000000 0.000000 0.000000 5.882404 14.566400 -7.141246 -4.897333 0.012812 11.151271 1.387925 -4.482345 0.879818 -5.514004 -5.619551 -3.520462 -1.110683 -0.445938 -4.056370 0.000000 0.000000 0.000000 5.065874 14.982194 -6.974971 -1.206065 -1.124950 3.611547 1.693878 0.963657 4.604668 0.147570 -0.137169 -0.049442 0.000000 0.000000 0.000000 2.112831 4.031193 4.168963 -2.235942 5.061635 2.867827 -14.991068 -37.919001 -25.266596 0.000000 0.000000 0.000000 1.538158 1.940965 4.056425 1.493732 -9.079337 -10.197662 1.362138 -2.835140 -3.285587 1.434940 2.537471 -75.885007 3.783934 -14.267685 0.899704 0.000000 0.000000 0.000000 2.332552 2.549516 4.767157 0.249601 1.824515 14.760766 -6.972509 -0.436664 0.684731 3.074602 13.262220 62.275349 -10.881604 6.987002 0.604010 0.000000 0.000000 0.000000 
5.738962 116.726105 -13.762524 0.000000 0.000000 0.000000 5.613880 15.110118 -7.369016 -25.069847 11.696940 18.069689 23.819912 8.984614 2.098621 -1.711713 5.746261 -18.376981 -0.614254 -4.743049 4.167962 0.000000 0.000000 0.000000 6.037292 14.144002 -7.356903 -5.390540 0.262210 11.429344 1.546093 -4.395590 0.899022 -5.334134 -5.812220 -3.577926 -1.026568 -0.488366 -3.974456 0.000000 0.000000 0.000000 5.088190 14.494614 -7.232248 -1.217065 -1.031590 3.616009 2.029771 0.911571 4.568751 0.144959 -0.146030 -0.042265 0.000000 0.000000 0.000000 2.429450 3.992176 4.086449 -2.796614 4.930022 3.369207 -15.183493 -37.114176 -25.340036 0.000000 0.000000 0.000000 1.850989 1.852764 3.986566 1.373146 -9.607276 -10.386734 1.315184 -2.868444 -3.442140 1.230929 2.769804 -75.174449 4.080442 -14.832003 1.069073 0.000000 0.000000 0.000000 2.652717 2.514165 4.771735 0.071567 1.893829 15.206457 -6.937231 -0.437402 0.697815 3.918268 14.589892 61.400826 -10.613124 6.670326 0.393340 0.000000 0.000000 0.000000 
5.575077 116.678444 -13.674801 0.000000 0.000000 0.000000 5.824001 14.608308 -7.639122 -25.217246 11.404036 18.172531 24.171539 8.743159 2.037646 -1.648440 6.308485 -18.156564 -0.655991 -4.825501 4.519683 0.000000 0.000000 0.000000 6.191423 13.638356 -7.596880 -5.810549 0.480901 11.682641 1.554874 -4.281601 0.932344 -5.088166 -5.918762 -3.706733 -0.813747 -0.521475 -3.932503 0.000000 0.000000 0.000000 5.144760 13.891817 -7.554291 -1.155453 -0.949021 3.687514 2.348427 0.858400 4.523329 0.148320 -0.152981 -0.038528 0.000000 0.000000 0.000000 2.747367 3.958909 3.995451 -3.379606 4.838102 3.896826 -15.416430 -36.367612 -25.398926 0.000000 0.000000 0.000000 2.158194 1.761654 3.906477 1.269823 -10.212310 -10.553844 1.249941 -2.822867 -3.621304 1.091708 3.074524 -74.517337 4.440602 -15.480055 1.244759 0.000000 0.000000 0.000000 2.974296 2.487551 4.772177 -0.069391 2.012317 15.685237 -6.840762 -0.429463 0.627591 4.733364 16.001955 60.342447 -10.364405 6.484340 0.179380 0.000000 0.000000 0.000000 
